<?xml version="1.0" encoding="utf-8"?>
<!-- Generator: Adobe Illustrator 18.0.0, SVG Export Plug-In . SVG Version: 6.00 Build 0)  -->
<!DOCTYPE svg PUBLIC "-//W3C//DTD SVG 1.1//EN" "http://www.w3.org/Graphics/SVG/1.1/DTD/svg11.dtd">
<svg version="1.1" id="Layer_1" xmlns="http://www.w3.org/2000/svg" xmlns:xlink="http://www.w3.org/1999/xlink" x="0px" y="0px"
	 viewBox="0 0 600 400" enable-background="new 0 0 600 400" xml:space="preserve">
<g>
	<path d="M227.5,229.3c3.3,0,6.5,0.2,9.6,0.4c5.6,0.4,11.2,0.1,16.8,0.1c3.8,0,7.6,0,11.3-0.1c7.5-0.2,15,0.4,22.5,0.7
		c5.9,0.2,11.7,0.9,17.5,1.2c5.3,0.3,10.5,0.6,15.8,0.6c3,0,6.1,0.2,9.1,0.4c2.1,0.2,4.2,0.2,6.2,0.2c5.3,0.1,10.7,0,16,0.1
		c4.2,0.1,8.3,0.5,12.4,0.8c4.7,0.3,9.4,0.4,14.1,0.5c3.9,0.1,7.9,0.1,11.8,0.5c0.3,0,0.5,0,0.8,0c3.1-0.6,6.3-0.2,9.4,0.1
		c5.1,0.5,10.3,0.6,15.5,0.9c2.1,0.1,4.2,0.5,6.4,0.5c0.1,0,0.1,0,0.2,0c3.2-0.3,6.3,0.4,9.4,1.1c2.2,0.6,4.4,0.3,6.7,0.3
		c2.7,0,5.4,0.2,8,1.1c0.3,0.1,0.6,0.1,0.9,0.1c0.9,0.1,1.4,0.7,1.7,1.6c1.2,3.1,1.4,6.4,2.3,9.6c0.4,1.6,0.6,3.3,0.8,4.9
		c0.5,2.8,1.1,5.5,1.5,8.3c0.3,2.2,0.5,4.3,0.8,6.5c0.1,0.5,0.1,1.1,0.3,1.6c0.3,0.8,0.6,1.4-0.3,2.1c-0.4,0.3-0.2,1-0.1,1.5
		c0.2,0.6,0.6,1.1,0.8,1.7c0.7,1.3-0.1,2.5-1.5,2.2c-1.8-0.4-3.6-0.3-5.4-0.7c-0.6-0.1-1.2-0.1-1.7,0c-1.5,0.2-2.9,0.5-4.4,0.2
		c-2.1-0.3-4.3,0-6.4,0.3c-3.6,0.4-7.2,0.2-10.9,0.2c-3.2,0-6.5-0.2-9.7,0c-2.8,0.1-5.6-0.1-8.5-0.3c-2.6-0.2-5.2-0.2-7.8-0.2
		c-3.7-0.1-7.3-0.5-11-0.5c-6.2,0.1-12.4-0.1-18.5-0.2c-1.3,0-2.6-0.1-3.8-0.2c-3.8-0.4-7.6-0.1-11.3,0c-2.8,0-5.6,0-8.5-0.3
		c-3.2-0.3-6.5-0.4-9.7-0.6c-5.4-0.3-10.8-0.8-16.2-1c-2.9-0.1-5.7-0.2-8.6-0.1c-2.8,0.1-5.6-0.2-8.5-0.2c-2.7-0.1-5.3,0-8-0.1
		c-1.2,0-2.4-0.1-3.7-0.2c-0.3,0-0.6-0.1-1,0c-3.5,0.5-7-0.5-10.4-0.8c-4.4-0.5-8.9-1.2-13.3-1.5c-5.6-0.5-11.3-0.7-16.9-0.5
		c-4.3,0.2-8.5,0.2-12.8,0.1c-2.6-0.1-5.1-0.1-7.7-0.2c-0.9,0-1.7-0.3-2.5-0.5c-1.1-0.3-1.5-0.8-1.3-1.8c0.2-0.9,1-1.5,2-1.4
		c1,0.2,2.1,0.3,3.1,0.6c1.6,0.4,3.1,0.6,4.7,0.6c4.7,0.1,9.5,0.3,14.2,0.1c3.2-0.1,6.5-0.2,9.7-0.1c1.3,0,2.6,0.1,3.8,0.2
		c5.5,0.4,11,0.9,16.5,1.6c6.6,0.8,13.1,1.2,19.8,1.1c3.5-0.1,7,0.1,10.5,0.2c3,0.1,6.1,0.1,9.1,0.1c2.3,0,4.6,0.4,6.8,0.5
		c2.6,0.2,5.2,0.4,7.8,0.5c5.3,0.3,10.5,0.6,15.8,1c3.1,0.2,6.3,0,9.4-0.1c1.8-0.1,3.5,0,5.3,0c5.3,0.3,10.5,0.5,15.8,0.7
		c2.1,0.1,4.2,0,6.2-0.1c2.8-0.1,5.5,0.1,8.3,0.3c2.4,0.2,4.8,0.2,7.2,0.3c3.1,0.1,6.3,0.1,9.4,0.4c0.9,0.1,1.8,0.1,2.7,0
		c2.8-0.5,5.5-0.1,8.3,0c3.9,0.2,7.8,0.3,11.7,0.2c0.4,0,0.9-0.1,1.3-0.2c1-0.4,2.1-0.4,3.2-0.3c2.6,0.3,5.2,0.3,7.8-0.3
		c1.2-0.3,2.4-0.3,3.6,0c1.6,0.3,1.6,0.2,2-1.3c0.5-2.1,0.2-4.2-0.2-6.3c-0.2-1.4-0.2-2.8-0.3-4.1c-0.3-3.5-1.3-6.9-1.8-10.4
		c-0.4-3-0.9-5.9-1.9-8.7c-0.2-0.6-0.2-1.1-0.1-1.7c0.1-0.7-0.3-1.1-1-1.1c-1.8,0.1-3.5-0.7-5.4-0.8c-1,0-2.1-0.1-3.2-0.2
		c-2-0.1-4-0.1-6-0.7c-1.7-0.5-3.4-0.8-5.2-1.1c-0.7-0.1-1.4-0.1-2,0.1c-2.3,0.8-4.6,0.2-6.8-0.2c-2.2-0.3-4.4-0.7-6.7-0.7
		c-3.5-0.1-6.9-0.4-10.4-0.6c-1.1-0.1-2.1,0.1-3.2,0c-5.1-0.5-10.2-0.2-15.3-0.6c-3.8-0.3-7.6-0.3-11.3-0.4
		c-3.8-0.1-7.7-0.4-11.5-0.7c-5-0.5-10.1-0.6-15.2-0.5c-5.5,0.1-11,0.1-16.4-0.2c-3.8-0.2-7.6-0.3-11.3-0.5
		c-5-0.2-10.1-0.3-15.1-0.8c-4.6-0.5-9.3-1-14-1c-1.1,0-2.1-0.1-3.2-0.2c-2.5-0.1-5-0.2-7.5-0.3c-4.9-0.1-9.9-0.2-14.8-0.2
		c-4.6,0-9.2,0.3-13.7,0.3c-1.4,0-2.9,0.1-4.3,0.2c-1.2,0-2.5,0.2-3.7,0.1c-4.7-0.4-9.5-0.3-14.2-0.4c-0.6,0-1.3-0.1-1.9-0.2
		c-0.7-0.2-1.2-0.9-1.2-1.7c0.1-0.7,0.5-1,1.2-1C225.4,229.2,226.5,229.2,227.5,229.3z"/>
	<path d="M217.8,25.8c0.1,2.2,0.2,4.1,0.4,6c0.2,2.8,0.2,5.6,0.5,8.4c0.4,4,1,7.9,1,11.9c0,1.2,0.5,2.4,1,3.5
		c0.5,1.4,0.1,2.6-0.4,3.8c-0.1,0.3-0.4,0.5-0.6,0.7c-0.4,0.3-0.8,0.3-1.2,0c-0.4-0.2-0.5-0.6-0.3-1c0.4-1.3,0.1-2.5-0.3-3.8
		c-0.7-2.4-1-4.9-0.9-7.4c0-2.5-0.2-5-0.5-7.5c-0.3-3.5-0.2-7-0.4-10.5c-0.1-1.6-0.2-3.2,0.3-4.7c0.2-0.7,0.5-0.8,1-0.5
		c0.5,0.3,0.9,0.4,1.4-0.1c0.6-0.6,1.4-0.7,2.2-0.6c1.9,0.1,3.8,0.4,5.7,0.3c3.9-0.3,7.8,0.1,11.7,0c4.9-0.2,9.8-0.5,14.7-0.5
		c2.9,0,5.7,0.2,8.6,0.4c4.4,0.3,8.8,0.2,13.3,0.3c4.6,0.1,9.2,0.2,13.7,0.4c4.8,0.2,9.7,0.1,14.5,0.3c4.5,0.2,9.1,0.1,13.6,0.1
		c2.3,0,4.7-0.1,7-0.1c4.3-0.2,8.6-0.1,12.9-0.1c4.5,0,9,0.1,13.4,0c6.4-0.1,12.8,0,19.2,0.1c1.2,0,2.3,0,3.5,0.2
		c0.2,0,0.3,0.1,0.5,0c4.2-0.7,8.4,0.7,12.7,0.3c4.2-0.4,8.5-0.1,12.8-0.4c2.1-0.1,4.1,0.1,6.2,0.1c3.6,0.1,7.2,0.3,10.8,0.4
		c5.6,0.2,11.2-0.1,16.8,0.2c1.3,0.1,2.7,0,3.9-0.6c2.1-1,4.1,0.9,4.6,2.5c0.6,1.9,0.7,4,1,6c0.5,3.9,1,7.8,1.8,11.7
		c0.5,2.6,1.3,5.1,1.3,7.7c0,0.8,0.1,1.6,0,2.4c-0.3,2.5-0.2,4.9,0.3,7.3c0.1,0.8,0.2,1.6,0.2,2.4c-0.1,1.9,0.1,3.7,0.7,5.5
		c0.1,0.3,0.1,0.5,0.1,0.8c0,0.5,0.2,1.1-0.5,1.4c-0.6,0.2-1.3,0.5-1.8-0.1c-0.5-0.6-1.1-0.5-1.7-0.4c-2,0.3-4,0.5-6,0.8
		c-1.1,0.1-2,0.4-2.8,1.3c-0.8,0.8-1.9,1.3-3.1,0.6c-0.8-0.5-1.7-0.5-2.6-0.5c-2.9-0.2-5.8-0.5-8.6-1.2c-1.6-0.4-3.2,0-4.8,0.2
		c-0.6,0.1-1.3,0.2-1.9,0.1c-3.3-0.5-6.6-0.4-9.9-0.8c-2.8-0.3-5.5-0.3-8.3-0.5c-2-0.1-4-0.2-6-0.1c-3.6,0.1-7.1-0.1-10.7-0.4
		c-2.8-0.2-5.6-0.3-8.5-0.3c-4.8,0-9.5-0.3-14.3-0.5c-4.7-0.3-9.5-0.4-14.2-0.4c-4.1,0-8.2-0.2-12.3-0.3c-3,0-6.1,0-9.1,0
		c-4.1,0-8.2,0.1-12.3-0.2c-5.8-0.4-11.6-0.3-17.4-1c-6.3-0.7-12.6-1-18.9-1.5c-1.3-0.1-2.6-0.1-3.8-0.1c-4.6,0-9.1-0.4-13.7-1.1
		c-3.6-0.6-7.2-0.8-10.8-0.9c-1.6,0-3.3-0.3-4.9-0.7c-2.1-0.6-4.2-0.8-6.3-0.9c-3.1-0.1-6.2,0.1-9.3,0.3c-0.8,0.1-1.5-0.1-2.2-0.3
		c-0.4-0.1-0.8-0.4-1.1-0.6c-0.5-0.4-0.6-1-0.4-1.6c0.2-0.6,0.8-0.7,1.4-0.6c1,0.1,2,0.4,3,0.4c3.4,0,6.8-0.1,10.2,0.1
		c1.9,0.1,3.7,0.4,5.5,0.7c2.1,0.3,4.2,0.7,6.3,0.6c3.1-0.1,6.2,0.4,9.2,1c4.2,0.7,8.4,1.2,12.7,1.2c2.7,0,5.3,0.2,8,0.4
		c3.8,0.3,7.6,0.6,11.5,0.8c3.3,0.2,6.6,0.5,9.9,0.7c0.6,0,1.3,0.2,1.9,0.1c3-0.2,6,0.4,9.1,0.5c3.6,0.1,7.1,0.1,10.7,0.2
		c1.9,0,3.7,0.1,5.6,0.1c1.2,0,2.3-0.1,3.5,0c6.3,0.1,12.7,0.3,19,0.4c6.1,0.2,12.1,0.4,18.2,0.8c3.3,0.2,6.7,0,10,0.1
		c2.9,0.1,5.7,0.3,8.6,0.6c2.2,0.2,4.3,0,6.5,0.1c4.1,0.1,8.2,0.4,12.3,0.5c1.9,0.1,3.8,0.2,5.7,0.2c1.9,0,3.7,0.1,5.6,0.3
		c0.8,0.1,1.7,0,2.5-0.2c1.4-0.3,2.8-0.1,4.1,0c0.8,0.1,1.7,0.5,2.5,0.3c1.9-0.4,3.6,0.4,5.3,0.8c1.5,0.3,2.9,0.5,4.4-0.5
		c1.2-0.9,2.9-0.8,4.5-1c0.9-0.1,1.8,0.1,2.6-0.6c0.3-0.2,0.6-0.2,0.9-0.1c0.9,0.3,1.8,0,2.7,0c0.7,0,0.8-0.4,0.9-1
		c0.2-2.6,0-5.2-0.4-7.8c-0.2-1.5-0.3-3-0.1-4.5c0.4-3.9,0.1-7.7-1-11.4c-0.9-3.2-1.3-6.6-1.7-9.9c-0.2-1.2-0.3-2.3-0.5-3.5
		c-0.1-0.8-0.1-1.6-1.1-1.9c-0.3-0.1-0.4-0.4-0.3-0.7c0.1-0.9-0.5-1-1.2-1.1c-2.1-0.3-4.2-0.2-6.4-0.3c-3.5-0.1-7,0-10.5-0.1
		c-4.6-0.1-9.3-0.3-13.9-0.5c-5.4-0.3-10.8-0.1-16.1,0c-1.8,0-3.7,0.2-5.6,0.3c-3.9,0.2-7.7-0.1-11.6-0.4c-2.9-0.2-5.7-0.4-8.6-0.5
		c-2.8-0.1-5.6,0.1-8.4,0.1c-3,0-5.9,0-8.9,0c-3.2,0-6.4,0-9.6,0.1c-4.4,0.1-8.8,0.1-13.3,0.1c-5.5,0.1-11.1,0.2-16.6,0.2
		c-6.7,0-13.4-0.1-20.1-0.4c-4.6-0.2-9.3-0.6-13.9-0.4c-5.8,0.2-11.5-0.3-17.2-0.5c-4.1-0.1-8.1,0.1-12.1,0.2
		c-3.6,0.1-7.2,0.3-10.9,0.2c-1.8-0.1-3.6,0.1-5.4,0.3c-1.9,0.2-3.7,0.3-5.6,0c-0.2,0-0.4-0.1-0.6-0.1
		C219.9,26.8,218.7,27.2,217.8,25.8z"/>
	<path d="M348.1,145.1c-3-0.3-6.1-0.3-9.2-0.4c-2.2-0.1-4.3-0.2-6.5-0.2c-4-0.1-8.1-0.5-12.1-0.9c-5.9-0.6-11.7-1.5-17.6-1.9
		c-4.6-0.3-9.2-0.8-13.8-1.1c-2-0.1-4-0.1-6-0.1c-3.1-0.1-6.1-0.2-9.2-0.4c-4.3-0.3-8.6-0.6-12.9-0.7c-6.1-0.2-12.2-0.8-18.3-1.3
		c-2.1-0.2-4.3-0.2-6.4-0.4c-2.9-0.2-5.8-0.5-8.8-0.7c-1-0.1-2-0.3-2.9-0.7c-0.7-0.3-1.2-1.3-0.8-2c0.5-1.1,0.7-1.4,2.1-0.8
		c1.4,0.7,2.9,1.3,4.5,1.5c2.9,0.3,5.7,0.6,8.6,0.8c4.4,0.3,8.8,0.6,13.2,0.9c3.9,0.3,7.9,0.5,11.8,0.7c4.1,0.2,8.3,0.5,12.4,0.7
		c3.1,0.2,6.3,0.3,9.4,0.4c4.5,0.2,8.9,0.5,13.4,0.8c3.3,0.2,6.6,0.4,9.9,0.7c4.6,0.5,9.2,1.1,13.8,1.5c3.5,0.3,7.1,0.7,10.7,0.8
		c5.1,0.1,10.1,0.3,15.2,0.5c3.8,0.1,7.7,0.2,11.5,0.3c1.6,0,3.2,0,4.8,0.2c1.2,0.1,2.3-0.2,3.5-0.2c1.8-0.1,3.5,0.3,5.3,0.3
		c4,0,8.1,0.1,12.1,0.3c3.8,0.2,7.6,0.4,11.5,0.8c1.4,0.2,2.9-0.1,4.3,0.2c4.7,0.8,9.5,1.1,14.3,1.5c5,0.4,10,0.9,15,1
		c2.7,0.1,5.4,0.5,8.1,0.8c0.9,0.1,1.9,0.2,2.8-0.1c0.6-0.2,1-0.3,1.2-1c0.1-0.5,0.7-0.9,1.2-0.8c0.6,0.1,0.9,0.5,1.1,1
		c0.1,0.2,0.2,0.5,0.2,0.8c-0.2,4.5,1,8.8,1.5,13.1c0.1,1,0.1,2,0.1,3c-0.1,2.9,0.2,5.7,0.4,8.6c0.2,2.7,0.7,5.5,0.6,8.3
		c-0.1,1.7,0.5,3.2,0.7,4.9c0,0.3,0.2,0.5,0.4,0.6c0.9,0.7,0.6,1.6,0.6,2.5c0,0.6-0.8,1.2-1.6,1c-2.1-0.4-4.2-0.3-6.3,0.4
		c-0.4,0.1-0.8,0.1-1.1-0.1c-1.1-1.1-2.6-0.9-3.9-1c-3.3-0.3-6.6-0.2-9.9-0.2c-2.2,0-4.5-0.3-6.7-0.5c-4.4-0.5-8.9-0.7-13.4-0.9
		c-4.5-0.2-8.9-0.6-13.4-0.9c-4.7-0.2-9.5-0.2-14.2-0.2c-4.1,0-8.1-0.3-12.1-0.4c-5.5-0.1-11.1-0.3-16.6-0.3c-5.4,0-10.9,0-16.3-0.4
		c-1.6-0.1-3.3-0.1-4.9-0.2c-5.5-0.2-11.1-0.2-16.6-0.3c-7.6-0.2-15.2-0.5-22.8-1c-9-0.6-18-0.6-27-0.6c-3.2,0-6.5-0.1-9.7-0.1
		c-0.7,0-1.4,0.1-2.1,0.1c-4.1,0.1-8.2-0.4-12.3-0.1c-1.2,0.1-2.3,0.1-3.5,0.2c-2,0.2-4,0-6-0.5c-1-0.3-2-0.5-2.9,0.5
		c-0.6,0.6-1.3,0.1-1.6-0.4c-0.6-0.9-0.9-1.9-1.8-2.6c-0.2-0.2-0.1-0.6-0.1-0.9c0-5.4-0.6-10.8,0-16.3c0.1-0.9,0-1.8-0.1-2.7
		c-0.5-3.4-0.5-6.8-0.4-10.2c0-1.1,0-2.1-0.2-3.2c-0.5-2.4-0.9-4.9-1.1-7.4c0-0.6-0.4-1.2-0.4-1.9c-0.1-1.3,1.1-2.1,2.3-1.6
		c0.5,0.3,0.8,0.7,0.8,1.3c0.1,1.7,0.2,3.4,0.3,5.1c0.1,1,0.2,1.9,0.3,2.8c0.6,4.2,0.5,8.4,0.8,12.6c0,0.5,0,1,0.1,1.4
		c0.8,3.2,0.4,6.5,0.2,9.7c-0.1,2.8,0,5.5,0.2,8.3c0.2,1.9,0.8,2.4,2.7,2.7c1.8,0.3,3.5,0.6,5.4,0.4c0.7-0.1,1.5,0.2,2.2,0.3
		c1.8,0.1,3.6,0.2,5.4,0.1c1.7,0,3.5,0.1,5.2,0.1c4.5,0.2,8.9,0.4,13.4,0.3c3.7-0.1,7.3-0.1,11-0.1c4.5,0,9,0.1,13.6,0.3
		c5.3,0.2,10.6,0.7,15.9,1c4,0.2,8,0.2,12,0.3c6.1,0.1,12.2,0.1,18.3,0.4c1.7,0.1,3.4,0.1,5.1,0.1c1,0,1.9,0.2,2.9,0.3
		c2,0.1,4-0.2,6.1-0.1c4.7,0.1,9.4,0.3,14,0.4c3.2,0.1,6.4,0,9.6,0.2c6.9,0.4,13.7,0.2,20.6,0.4c4.7,0.1,9.4,0.5,14.2,0.8
		c3,0.2,5.9,0.4,8.9,0.4c3,0.1,5.9,0.4,8.9,0.6c2.2,0.2,4.4,0.3,6.5,0.2c2-0.1,4,0,6.1,0.2c1.9,0.1,3.7,0.2,5.6,0.3
		c0.1,0,0.2,0.1,0.3,0c1.2-0.7,2.2-0.3,3.1,0.7c0.4,0.4,2.4,0.1,2.8-0.2c0.3-0.3,0.2-0.7,0.1-1.1c-0.7-5.1-0.7-10.2-1.2-15.3
		c-0.2-2.4-0.1-4.8,0-7.2c0.1-4-0.6-7.8-1.5-11.7c-0.2-0.9-0.7-1.4-1.5-1.4c-2.3,0-4.4-0.8-6.6-1.1c-1.9-0.3-3.7-0.4-5.6-0.5
		c-4.5-0.3-9-0.5-13.6-0.7c-2-0.1-4-0.4-6-0.6c-6.2-0.6-12.4-1.2-18.6-1.7c-4.6-0.4-9.1-0.4-13.7-0.6c-6.6-0.3-13.2,0-19.8-0.3
		C354.2,145.3,351.2,145.2,348.1,145.1z"/>
	<path d="M386.4,125.1c-0.7-0.3-1.2,0.2-1.8,0.2c-3.8,0-7.5,0.5-11.3,0.4c-1.9-0.1-3.8-0.1-5.7,0c-2,0.1-4,0.3-6,0.2
		c-2-0.1-4,0.4-6,0.1c-1-0.1-2.2,0.1-3.3,0.3c-1.6,0.3-3.2,0.2-4.7,0.3c-2.8,0.2-5.6,0.3-8.4,0.3c-1.1,0-2.3,0.2-3.5,0.3
		c-4,0.4-8.1,0.2-12.1,0.3c-3.8,0.1-7.6,0.2-11.4,0.1c-2.5-0.1-5,0-7.5-0.2c-2.9-0.3-5.9-0.3-8.8-0.6c-3.7-0.4-7.4-0.6-11.1-1
		c-3.9-0.4-7.9-0.6-11.8-0.9c-1-0.1-2-0.3-3-0.3c-1.1-0.1-2.2,0-3.3,0c-3.7,0-7.3-0.1-11-0.1c-4.3,0-8.5-0.4-12.7-0.8
		c-4.6-0.4-9.1-0.5-13.7-1.2c-1.5-0.2-2.9-0.5-4.4-0.7c-0.6-0.1-1.2-0.2-1.9-0.2c-2.3,0-3.5-1.3-3.5-3.6c0-0.6,0-1.2-0.1-1.7
		c-0.3-1-0.1-2-0.2-3c-0.2-2.7,0.5-5.4-0.2-8.1c-0.4-1.8-0.1-3.7-0.3-5.6c-0.3-3.2-0.6-6.4-1.2-9.5c-0.5-2.9-0.6-5.8-0.4-8.7
		c0.1-0.7,0.1-1.3-0.6-1.8c-0.5-0.4-0.7-0.9-0.5-1.6c0.3-0.7,0.9-0.7,1.5-0.7c0.3,0,0.5,0,0.8,0.1c4.5,1.1,9.1,0.8,13.7,0.7
		c2.9-0.1,5.7,0,8.6-0.1c5.4-0.2,10.7,0.3,16.1,0.3c2.5,0,5,0.4,7.5,0.6c4.2,0.4,8.5,0.7,12.7,0.9c4.7,0.3,9.4,0.7,14.2,0.9
		c2.6,0.2,5.1,0.2,7.7,0.3c5.5,0.2,10.9,0.4,16.4,0.6c3.4,0.1,6.8,0.1,10.2,0.2c1.5,0,3.1,0.1,4.6,0.2c1.6,0.1,3.3,0.1,4.9,0.1
		c1.6,0,3.2,0.3,4.7,0.5c2.3,0.4,4.7,0.3,7,0.6c3.9,0.5,7.9,0.4,11.8,0.7c2.3,0.2,4.6,0.4,6.8,0.7c4.5,0.5,9.1,1.2,13.6,1.5
		c4.1,0.2,8.2,0.8,12.3,0.7c1.9,0,3.8,0,5.7-0.2c1.1-0.1,2.2,0.1,3.3,0.3c2.5,0.4,5,0.2,7.5,0.5c3.4,0.4,6.9,0.8,10.3,1.3
		c2.9,0.4,5.7,0.6,8.6,0.7c2.7,0.1,5.4-0.1,8.1,0.2c3.2,0.3,6.4,0.6,9.5,1.3c1.4,0.3,2.8,1,4.3,1.2c0.7,0.1,1.1,0.5,0.6,1.2
		c-0.2,0.3-0.2,0.7-0.2,1.1c0.3,2.9-0.3,5.7-0.2,8.6c0,1.6,0,3.2,0.1,4.8c0.1,1.9,0.1,3.7,0,5.6c-0.1,1.7-0.1,3.5,0,5.2
		c0,0.6,0,1.2-0.1,1.7c-0.2,1-0.2,1.9,0.3,2.8c0.5,0.8,0.5,1.7,0.7,2.6c0.2,1-0.1,1.5-1.2,2c-1.2,0.6-1.3,0.6-2.3-0.1
		c-0.2-0.1-0.3-0.4-0.5-0.4c-1.5,0.1-2.9-0.9-4.3-0.8c-2.1,0.1-4.1-0.2-6.2-0.1c-1.9,0.1-3.7-0.1-5.6-0.3c-1.7-0.2-3.4-0.1-5.1,0
		c-1.7,0.1-3.3,0-4.9-0.1c-1.8,0-3.6,0-5.4-0.1c-4.2-0.3-8.4-0.1-12.5-0.5c-3.5-0.3-7-0.1-10.6-0.2
		C389.5,125.2,387.9,124.8,386.4,125.1z M445.9,124.9c0.3-0.4,0.3-0.8,0.1-1.2c-0.5-1-0.4-2.1-0.4-3.1c0.1-1.9,0.2-3.8,0.4-5.7
		c0.1-1.4,0.2-2.9,0.2-4.3c-0.1-3.1-0.1-6.2,0-9.3c0.1-2,0.2-4,0.2-6.1c0-0.7-0.2-1.1-0.9-1.2c-3.3-0.7-6.6-1.2-9.9-1.6
		c-5-0.5-10-0.5-14.9-1.3c-3.8-0.6-7.6-0.9-11.4-1.3c-0.7-0.1-1.5-0.1-2.2,0c-1.2,0.2-2.5,0.2-3.7-0.1c-3.5-0.7-7-0.8-10.5-0.9
		c-3.3-0.1-6.7,0-10-0.1c-5.8-0.3-11.6-1.4-17.4-2c-3-0.3-5.9-0.5-8.9-0.7c-4.9-0.3-9.8-0.4-14.7-0.9c-6.2-0.6-12.4-1-18.6-1.1
		c-3.6-0.1-7.2-0.3-10.9-0.3c-7,0.1-14-0.5-21-0.8c-2.4-0.1-4.9-0.3-7.3-0.5c-4.3-0.3-8.6-0.5-12.9-0.8c-5.1-0.4-10.3-0.8-15.4-1.1
		c-8.9-0.6-17.9-0.4-26.8,0c-2.5,0.1-4.9-0.1-7.3-0.1c-0.7,0-1.3,0.2-1.4,1c-0.1,2-0.6,4-0.3,6.1c0.6,4.6,1.4,9.3,1.5,14
		c0,0.3,0.1,0.5,0.1,0.8c0.3,2.4,1.1,4.7,1.2,7.1c0.1,0.8,0.1,1.5-0.4,2.1c-0.5,0.6-0.5,1.3-0.5,2.1c0.1,1.5,0.6,2.9,0.8,4.4
		c0.1,0.9,0.6,1.3,1.5,1.3c2.8,0.2,5.4,0.9,8.2,1.4c2,0.3,4,0.7,6,0.7c2.2,0.1,4.5,0.2,6.7,0.4c2.9,0.2,5.7,0.6,8.6,0.7
		c3,0.1,6.1,0.2,9.1,0.3c2,0,3.9,0.2,5.9,0.2c3.7,0,7.4,0.4,11.1,0.7c3.7,0.3,7.3,0.7,11,1.1c4,0.4,8,0.6,11.9,0.8
		c3.9,0.2,7.8,0.3,11.6,0.4c2.6,0,5.3-0.1,7.9-0.1c3.2-0.1,6.4-0.1,9.6-0.3c2.4-0.2,4.9-0.2,7.3-0.3c2.3-0.1,4.6,0,6.8-0.3
		c0.8-0.1,1.6-0.2,2.4-0.1c3.5,0.1,6.9-0.2,10.4-0.4c4.1-0.3,8.3-0.3,12.4-0.5c2.2-0.1,4.4-0.1,6.5-0.2c3.9-0.1,7.8-0.4,11.7-0.4
		c4.1-0.1,8.3,0.2,12.4,0.2c4.5,0,9,0.5,13.5,0.5c3.3,0,6.6,0.5,9.8-0.3c0.4-0.1,0.7-0.1,1.1,0c4.1,0.4,8.2,0.3,12.2,0.5
		c0.9,0.1,1.8,0.3,2.7,0.3C442.7,124.2,444.4,124,445.9,124.9z"/>
	<path d="M552.9,332.8c-1.6-1.5-3.1-2.6-4.3-4c-0.5-0.6-0.7-1.2-0.6-1.9c0.2-1.3,1.1-1.6,2.2-0.9c1.6,1.1,2.7,2.7,4.1,4
		c0.7,0.6,1.4,1.3,2,2.1c0.3,0.5,0.8,0.9,1.4,1.1c1,0.2,1.5,1,2.1,1.7c0.8,0.9,0.7,2.1-0.3,2.8c-1.8,1.3-3.4,2.9-5.1,4.4
		c-0.5,0.5-1,0.8-1.2,1.6c-0.2,0.8-0.8,0.9-1.5,0.9c-0.6-0.1-0.8-0.6-0.9-1.1c-0.2-0.8-0.1-1.5,0.5-2.1c1.2-1.3,2-2.9,3.3-4.1
		c0.3-0.3,0.8-0.6,0.5-1.1c-0.3-0.5-0.8-0.3-1.3-0.2c-0.7,0.2-1.4,0.3-2,0.4c-0.9,0.1-1.8,0.5-2.6-0.3c-0.1-0.1-0.4-0.1-0.6-0.1
		c-1.2,0-2.4-0.1-3.7,0.1c-1.4,0.2-2.8,0.8-4.3,0.2c-0.6-0.2-1.4,0-2,0.2c-2.1,0.5-4.2,0.5-6.3,0.2c-1.8-0.2-3.6,0-5.4-0.2
		c-3.3-0.4-6.6,0.1-9.9,0.4c-2.3,0.3-4.6,0.2-6.9,0.3c-4.5,0.1-8.9-0.3-13.4,0.5c-1.3,0.2-2.6,0.2-3.9-0.4c-1.2-0.5-2.6-0.3-3.8,0
		c-2.9,0.6-5.8,0.2-8.8,0.1c-3.4-0.1-6.7-0.4-10.1,0c-2,0.2-4-0.3-6-0.3c-3.6-0.1-7.2-0.5-10.8,0.4c-1.2,0.3-2.4,0.2-3.7,0.1
		c-2.6-0.3-5.2-0.3-7.8-0.1c-3.2,0.3-6.4,0.1-9.6-0.1c-4.1-0.3-8.3-0.1-12.5-0.3c-2.5-0.1-5.1,0-7.6-0.3c-1.8-0.3-3.6-0.3-5.4-0.2
		c-4.3,0.3-8.5,0-12.8-0.2c-5-0.2-9.9-0.3-14.8,0c-2.7,0.2-5.4,0.1-8.1-0.1c-2.4-0.1-4.9-0.2-7.3-0.2c-6.3,0-12.7,0.3-19-0.1
		c-5.5-0.4-10.9-0.7-16.4-0.5c-3.7,0.2-7.3,0.3-11,0.2c-2-0.1-4-0.2-6.1-0.2c-4.6,0-9.3,0.2-13.9,0.5c-2,0.1-4,0-6.1-0.1
		c-2.3,0-4.6-0.1-6.9-0.1c-2.6-0.1-5.1,0-7.7,0.4c-2.7,0.4-5.4,0.5-8,0.8c-1.7,0.2-3.4,0-5.1,0c-4.2,0.1-8.4,0.4-12.6,0.7
		c-4.8,0.4-9.6,0.5-14.3,0.6c-0.9,0-1.8-0.2-2.7-0.2c-3-0.3-6-0.1-8.9,0.1c-3.4,0.2-6.8,0.1-10.2,0.5c-3.3,0.3-6.7,0.1-10.1-0.2
		c-2.4-0.2-4.7,0.2-7,0.7c-2,0.4-4,0.3-6,0.4c-0.6,0-1-0.3-1.1-0.9c-0.1-0.6,0-1.2,0.5-1.6c0.5-0.4,1.1-0.5,1.6-0.6
		c4.1-0.6,8.1-1.2,12.2-1.2c1.5,0,2.9,0.2,4.3,0.4c2.3,0.2,4.7,0.2,7,0.1c6.6-0.4,13.2-0.7,19.8-0.4c4.3,0.2,8.6,0.2,12.9-0.3
		c3.3-0.4,6.7-0.4,10-0.5c3.2-0.2,6.5-0.2,9.7-0.4c4.8-0.3,9.6-0.6,14.3-1c1.9-0.2,3.7,0.2,5.6,0.2c3.2-0.1,6.5,0.1,9.7-0.1
		c2.2-0.2,4.5,0,6.7-0.1c5.3-0.3,10.5,0.2,15.8,0.2c3.2,0,6.4-0.3,9.6-0.3c3.1,0,6.2,0,9.3,0.2c3.3,0.2,6.6,0.4,9.9,0.4
		c6.9,0.1,13.9-0.1,20.8,0.2c5.4,0.2,10.9,0,16.3-0.1c3.5-0.1,7,0.2,10.5,0.4c4.1,0.3,8.2,0.2,12.3,0.1c1.5,0,2.9,0.3,4.3,0.3
		c4.9,0.2,9.8,0.5,14.7,0.4c2.2,0,4.5,0.4,6.7,0.3c2.9-0.1,5.9,0.1,8.8-0.1c2.1-0.1,4.3,0,6.4,0.1c1.1,0,2.2,0,3.3-0.2
		c2.7-0.6,5.4-0.1,8.1-0.1c4.9,0.1,9.8,0.2,14.7,0.1c1.9,0,3.7,0.1,5.6,0.3c1.5,0.2,3.1,0.2,4.6,0c3.6-0.7,7.2-0.3,10.8-0.3
		c3.2,0,6.4,0.2,9.6,0.3c4.5,0.1,9.1-0.3,13.5-1.1c2.4-0.4,4.8-0.3,7.2-0.1c3.1,0.3,6.3,0.3,9.4-0.1c0.1,0,0.1,0,0.2,0
		c4,0.1,8.1-0.6,12.1-0.2C550.4,333.2,551.5,333,552.9,332.8z"/>
	<path d="M316,253.6c0.6-2.5,0.5-4.9,0.4-7.2c0-0.3-0.1-0.6-0.1-1c0-0.5,0.3-0.8,0.7-1c0.5-0.2,0.8,0.1,1.1,0.4
		c0.4,0.6,0.7,1.1,0.8,1.9c0.1,2.6-0.1,5.1-0.4,7.6c-0.2,2.1,0,4.2,0.6,6.3c0.2,0.6,0.5,1.2,1.2,1.4c0.8,0.2,1.7-0.3,1.7-1.2
		c0-3.5,2.2-6,4.1-8.7c0.8-1.1,2.2-1.5,3.4-2c0.6-0.2,0.8-0.4,0.9-0.9c0.2-1.2,0.5-2.3,0.6-3.5c0.1-1.2,0.6-1.7,1.4-1.6
		c0.8,0.1,1.4,0.8,1.3,1.9c-0.1,2.4-0.8,4.7-1.4,7c-0.4,1.4-0.7,2.8-0.6,4.3c0.2,1.9,0.7,3.7,2.9,4.3c0.5,0.1,0.9,0.5,0.8,1
		c0,0.7-0.6,0.9-1.1,0.9c-1.2,0.1-2.2-0.4-3-1.2c-0.6-0.6-1.1-1.3-1.6-2c-0.4,0-0.5,0.2-0.7,0.4c-1,1.5-2.5,2.1-4.1,2.6
		c-0.4,0.1-0.8,0.2-1.1,0.1c-0.9-0.5-1.6-0.3-2.4,0.3c-1.3,0.9-2.9,0.6-3.9-0.7c-0.5-0.7-0.8-0.6-1.5-0.2c-0.9,0.5-1.9,1.1-3.1,1.2
		c-1.2,0.2-1.8-0.1-2.4-1.1c-0.2-0.3-0.3-0.6-0.3-0.9c-0.2-2.3,0-4.5,1.3-6.4c0.4-0.6,0.9-1.1,1.3-1.6
		C313.5,253.2,314.6,252.7,316,253.6z M329.1,253.7c-2.3,1.2-3.3,3.1-4.1,5.2c-0.2,0.4-0.1,0.9-0.1,1.4c0,0.7,0.5,0.9,1,0.7
		c1.2-0.6,2.5-1.3,2.9-2.8C329.1,256.8,329.1,255.4,329.1,253.7z M312.7,259.7c0,0.5-0.1,0.7-0.1,0.9c0,1.2,0.7,1.6,1.7,1
		c1.2-0.6,2.2-1.3,1.6-2.9c-0.2-0.5,0-1.1-0.1-1.6c-0.1-1-0.7-1.3-1.5-0.7C313.2,257.3,312.5,258.4,312.7,259.7z"/>
	<path d="M324,167.9c-1.5,1.2-2.8,2.4-4.5,2.9c-0.4,0.1-0.7,0.2-1.1,0.3c-2.1,0.2-3-0.6-3-2.7c0.1-3.4,1.8-5.8,4.5-7.7
		c0.5-0.4,1.2-0.5,1.8-0.6c0.7-0.1,1.3,0.1,1.7,0.7c0.7,0.9,0.6,1.4-0.6,1.6c-2.1,0.4-3.5,1.6-4.4,3.5c-0.1,0.1-0.1,0.3-0.2,0.4
		c-0.3,0.9-0.3,2.1,0.2,2.2c0.8,0.2,1.4-0.2,2-0.7c1.1-0.9,2.1-1.9,3-3.1c0.2-0.3,0.4-0.6,0.5-1c0.4-2.5,1.3-4.8,1.7-7.3
		c0.1-0.7,0.5-1.4,0.8-2.1c0.2-0.5,0.6-0.5,1-0.2c0.3,0.3,0.5,0.8,0.5,1.3c0.1,2.3-0.3,4.4-0.7,6.6c-0.3,1.6-0.5,3.3-0.4,4.9
		c0.1,1.6,1.5,2.5,2.9,2c0.4-0.2,0.5-0.5,0.5-0.9c0-3.8,2.3-6.5,4.8-9c0.5-0.5,0.6-0.9,0.7-1.5c0.1-1.5,0.2-3.1,0.3-4.6
		c0-0.6,0.3-0.9,0.8-1c0.5-0.1,0.9,0,1.2,0.5c0.7,1.2,0.6,2.5,0.7,3.7c0.2,3,0.3,6.1,0.6,9.1c0.1,0.7,0.2,1.4,0.4,2
		c0.4,1.3,1.3,2.2,2.6,2.5c0.3,0.1,0.5,0,0.8,0.1c0.5,0.2,0.5,0.7,0.1,1c-0.2,0.2-0.5,0.4-0.7,0.4c-1.5,0-3,0.4-4.2-1.1
		c-1.3-1.6-1.4-1.5-3.1-0.3c-0.5,0.4-1,0.8-1.6,1.1c-1,0.4-1.9,0.7-2.8-0.3c-0.2-0.2-0.4-0.4-0.7-0.2c-1,0.6-2.1,0.2-3.1,0.2
		c-1.3,0-2.1-1-2.7-2C324.3,168.8,324.2,168.4,324,167.9z M336.3,166.1c-0.1-1.1-0.2-1.9-0.4-2.7c-0.1-0.5-0.4-0.6-0.8-0.2
		c-0.6,0.7-1.3,1.3-1.8,2c-0.5,0.8-0.9,1.7-0.8,2.7c0.1,0.8,0.7,1.2,1.3,0.7c0.7-0.5,1.3-1.2,2-1.8
		C336.3,166.5,336.4,166.1,336.3,166.1z"/>
	<path d="M377.5,366.6c0.9-1.1,1.7-2.3,2.6-3.4c1.4-1.8,2.9-1.6,3.8,0.5c0.3,0.8,0.5,1.7,0.5,2.6c0,0.8,0.1,1.6,0.6,2.4
		c1.3-0.6,2.1-1.5,3-2.4c0.9-0.8,1.7-1.8,2.4-2.8c0.5-0.6,1-1,1.8-0.8c0.8,0.2,1.1,0.7,1.3,1.5c0.2,1.1,0.5,2.2,0.5,3.3
		c0.1,1.9,0.6,3.7,1.6,5.3c0.6,1,0.6,1.8,0.1,2.2c-0.5,0.3-1.2,0-2-0.9c-1.4-1.4-1.7-3.3-2.2-5c-0.2-0.5,0-1.4-0.6-1.5
		c-0.6-0.1-0.9,0.6-1.3,1c-0.7,0.7-1.3,1.4-1.9,2.2c-1,1.4-2.6,1.9-3.8,3c-0.3,0.3-0.7,0.1-1-0.2c-0.4-0.4-0.5-0.9-0.5-1.5
		c-0.1-1.5-0.3-3-0.5-4.4c0-0.2-0.1-0.4-0.4-0.6c-0.6,0.3-1,0.9-1.3,1.5c-0.6,1.1-1.2,2.2-1.6,3.3c-0.4,1-0.9,1.8-2,2
		c-0.6,0.1-1,0.9-1.7,0.5c-0.7-0.5-0.6-1.3-0.5-2.1c0.1-1.2,0.2-2.3,0-3.5c-0.2-1.4,0.4-2.7,0.6-4.1c0.1-0.6,0.6-1.1,1.3-1
		c0.7,0.1,1.1,0.6,1.1,1.3c0,0.5-0.1,0.9-0.1,1.4C377.3,366.5,377.4,366.5,377.5,366.6z"/>
	<path d="M94.5,256.9c-1.2,1-2,2.3-3,3.2c-0.6,0.5-1.3,1-2.1,1c-0.6,0-1.1,0.2-1.6,0.5c-2.2,1.3-4.6,1.9-7,2.3
		c-2.6,0.3-4.4-0.7-5.3-3.1c-0.2-0.5-0.5-0.8-1-0.9c-0.8-0.2-0.9-0.8-0.9-1.5c0-0.8,0.5-1,1.1-1.1c0.8,0,1.3-0.5,1.8-1.1
		c0.8-1,1.7-1.9,2.7-2.7c2-1.5,4.8-0.2,5.1,2.2c0.1,0.5-0.1,1-0.4,1.3c-0.9,0.9-1.7,1.8-3,1.9c-0.5,0-1,0.1-1.4,0.3
		c-0.8,0.3-1,1-0.4,1.6c0.4,0.4,0.8,0.5,1.3,0.5c2.3-0.1,4.6-0.4,6.7-1.4c0.6-0.3,0.9-0.6,1-1.3c0.2-0.9,0.5-1.8,0.8-2.8
		c0.4-1.2,1.5-1.7,2.5-0.9c0.5,0.4,0.9,0.4,1.3-0.1c0.3-0.3,0.6-0.6,0.9-0.9c1.4-1.4,2.7-1.2,3.5,0.7c0.3,0.8,0.6,1.6,1,2.3
		c0.8,1.5,1.6,2.9,3.6,3c0.2,0,0.4,0.1,0.6,0.2c0.5,0.2,0.6,0.6,0.5,1c-0.1,0.4-0.4,0.6-0.8,0.6c-2.3,0.1-4.3-0.4-5.7-2.4
		C95.6,258.8,95.1,257.9,94.5,256.9z"/>
	<path d="M88.5,166.3c1.7-0.1,3.4-0.2,5.2-0.4c0.6-0.1,0.6-0.7,0.7-1.1c0.2-1.1,0.3-2.1,0.5-3.2c0.2-1,0.7-1.4,1.5-1.4
		c0.7,0.1,1.3,0.7,1.4,1.5c0.1,0.3,0,0.6,0.1,1c0,0.3-0.1,0.6,0.1,0.9c0.4,0.1,0.5-0.3,0.7-0.5c1.1-1.5,2.6-2.5,4.1-3.6
		c0.9-0.6,1.9-0.2,2.8,0c0.3,0.1,0.4,0.5,0.4,0.8c0.2,0.9,0.5,1.9,0.7,2.8c0.2,1.1,0.9,1.7,1.9,1.9c0.8,0.1,1.6,0.3,2.4,0.4
		c0.4,0,0.8,0.1,0.8,0.6c0,0.4-0.3,0.5-0.6,0.6c-1.4,0.4-2.8,0.6-4.3,0.4c-1.5-0.2-2.4-1.4-2.8-2.8c-0.7-2.3-0.7-2.3-2.5-0.6
		c-1.3,1.3-2.6,2.6-4.1,3.8c-0.8,0.6-1.5,0.8-2.3,0.2c-0.6-0.4-1-0.4-1.6,0c-0.4,0.3-0.9,0.4-1.4,0.4c-1.8,0.2-3.6,0.4-5.4,0.5
		c-1.2,0.1-2.2-0.1-2.8-1.4c-0.1-0.2-0.3-0.3-0.4-0.5c-1.1-1.2-1-1.6,0.2-2.7c0.2-0.2,0.4-0.4,0.6-0.6c1.1-1.4,2.4-2.5,3.9-3.5
		c1.3-0.9,2.1-0.9,3.2,0.2c1.1,1,1.3,2.5,0.5,3.6c-0.7,0.9-1.6,1.7-2.8,2.1c-0.2,0.1-0.5,0.2-0.7,0.3
		C88.4,166.2,88.5,166.2,88.5,166.3z"/>
	<path d="M289.6,263.8c0.7-3.1,0.9-6.6,2.3-9.9c1.1-2.5,2.4-4.9,4.3-6.8c0.3-0.3,0.5-0.5,0.8-0.8c1-0.8,1.9-0.8,2.8,0.1
		c0.6,0.6,1,1.2,1.3,2c0.7,1.7,1.3,3.5,1.7,5.3c0.2,0.9,0.3,1.9,1,2.6c0.3,0.3,0.5,0.8,0.3,1.3c-0.4,1.8,0.6,3.2,1.3,4.6
		c0.2,0.4,0.6,0.4,0.9,0.4c0.9,0.1,1.3,1,0.8,1.7c-0.6,1-2.3,1.1-3.1,0.3c-0.9-1-1.6-2.1-2.1-3.4c-0.1-0.3-0.2-0.6-0.3-0.9
		c-0.7-2.3-0.7-2.3-3.1-1.8c-0.9,0.2-1.8,0.5-2.7,0.8c-0.4,0.1-0.8,0.2-1.1-0.2c-0.3-0.5-0.2-1,0.2-1.4c0.9-0.9,2-1.3,3.3-1.6
		c2.3-0.4,2.5-0.8,1.7-3.1c-0.4-1.1-0.8-2.3-1.3-3.4c-0.5-1-1-1-1.6-0.1c-0.9,1.3-1.5,2.7-2,4.2c-0.9,3.2-1.7,6.4-2.2,9.6
		c-0.1,0.5,0,1.1-0.5,1.5c-0.6,0.4-1.3,0.8-1.9,1.1c-0.3,0.2-0.6-0.1-0.8-0.4C289.6,265.1,289.6,264.6,289.6,263.8z"/>
	<path d="M306.2,162.5c-0.6-2.1-1.5-3.9-2.5-5.6c-0.6-1.1-1-1-1.6,0.1c-1.9,3.5-3.1,7.2-3.8,11.1c-0.1,0.5-0.3,0.9-0.4,1.4
		c-0.2,0.9-0.2,1.8-1.5,1.6c-0.1,0-0.3,0.1-0.4,0.2c-1.2,0.7-1.4,0.6-1.3-0.8c0.2-3.5,0.6-7,2-10.3c0.4-1,1.3-1.9,2-2.8
		c0.6-0.7,1.3-1.4,1.8-2.2c1.4-2.5,3.7-2.5,5.1,0c1.1,2,2.4,4.1,3,6.3c0.3,1,0.8,1.2,1.7,1.2c0.6,0,1.5-0.3,1.6,0.6
		c0.1,0.8-0.8,0.7-1.3,1c-0.6,0.3-0.9,0.6-0.5,1.3c0.7,1.3,0.9,3,2.2,4c0.4,0.3,0.4,0.9,0.1,1.3c-0.2,0.4-0.7,0.3-1.1,0.3
		c-0.8,0-1.2-0.4-1.6-1c-0.9-1.4-1.4-2.9-1.9-4.4c-0.2-0.7-0.5-1-1.3-1.1c-1.1,0-2.1,0.2-3.2,0.3c-1.5,0.2-2.5-0.4-2.7-1.9
		c-0.1-0.8,0.2-1.1,1-0.9C303.1,162.8,304.5,162.5,306.2,162.5z"/>
	<path d="M229,266.9c-1.6,0-2.9,0.6-4.2,1.2c-1,0.4-1.3,0.3-1.6-0.7c-0.1-0.3-0.1-0.5-0.2-0.8c-0.1-2.2-0.6-4.3-0.4-6.5
		c0.3-3-0.3-6.1-0.1-9.1c0.1-1.7,0.2-3.4,0.3-5.1c0.2-3-0.5-5.9-1.3-8.8c-0.3-1.2-0.4-2.4-0.2-3.6c0.1-0.6,0.3-1.2,1-1.2
		c0.7,0,1.2,0.4,1.4,1.1c0.2,1,0.4,2,0.6,3c0.3,1.3,0.5,2.5,0.8,3.7c0.6,2.5,0.8,5.1,0.5,7.6c-0.5,3.7-0.1,7.3,0.2,11
		c0.1,1.5-0.2,3,0.3,4.4c0.2,0.4,0.2,0.9,0.8,1.1C228.8,264.8,228.8,264.9,229,266.9z"/>
	<path d="M348.8,362.1c2.9,0,5.6-0.5,8.3-0.2c0.9,0.1,1.8,0.2,2.7,0.3c0.5,0,0.8,0.2,0.9,0.7c0.1,0.5-0.2,0.8-0.5,1.1
		c-0.4,0.3-0.8,0.4-1.2,0.3c-2.4-0.3-4.8,0.3-7.2,0.3c-0.5,0-0.9,0.3-1.4,0.4c-2.9,0.6-2.7,1.3-2.5,3.8c0.1,0.9,0.3,1.8,0.7,2.6
		c0.9,1.4,1.9,2.4,3.7,2.3c0.5,0,1,0,1.4,0.1c0.3,0.1,0.7,0.2,0.8,0.5c0.1,0.4-0.3,0.5-0.5,0.7c-2.2,1.7-5.9,1-7.4-1.4
		c-1.1-1.7-1.5-3.6-1.6-5.6c0-0.4,0-0.9,0-1.3c0-0.8-0.1-1.3-1.1-1.4c-1.1-0.2-1.6-0.8-1.5-1.7c0-1.1,0.7-1.6,1.7-1.5
		c1.4,0.2,1.3,0.2,1.9-1c0.8-1.9,1.6-3.8,2.9-5.5c0.3-0.4,0.7-0.7,1.1-0.9c0.8-0.3,1.3,0,1.8,0.6c0.5,0.6,0.3,1.1-0.1,1.6
		c-0.6,0.8-1.2,1.6-1.8,2.5C349.4,360.1,348.9,361,348.8,362.1z"/>
	<path d="M91.7,42.3c-0.7,0.6-1.3,1.1-1.6,1.7c-0.6,1.4-1.9,2.1-3.1,2.9c-0.3,0.2-0.7,0.4-1.1,0.2c-1.1-0.6-2.2-0.1-3.2,0
		c-1.2,0.2-2.3,0.1-3.5,0c-2.4-0.2-3.7-2.2-3.1-4.6c0.1-0.2,0.1-0.4,0.1-0.6c0-1.3,0.3-2.4,2-2.3c0.6,0,1.2-0.7,1.8-1
		c1-0.5,1.8-0.4,2.6,0.4c0.9,0.9,0.8,1.7-0.3,2.3c-0.8,0.4-1.3,1.2-2.4,1.2c-0.5,0-0.8,0.5-0.8,1c0,0.6,0.3,0.9,0.8,1
		c1.3,0.3,2.6,0.4,4,0.2c0.6,0,0.8-0.5,0.9-1c0.2-1,0.9-1.8,1.4-2.6c0.4-0.7,1.1-1,1.8-0.6c0.6,0.4,1,0.2,1.3-0.3
		c0.6-0.8,1.5-1.2,2.4-1.5c1.7-0.5,2.9,0.4,2.8,2c-0.1,1-0.1,2-0.1,3c0.1,2,0.7,2.6,2.8,2.6c0.9,0,1.6,0.5,2.5,0.4
		c0.3,0,0.5,0.3,0.4,0.6c0,0.3-0.3,0.4-0.6,0.4c-1.4,0.2-2.7,0.4-4.1,0.5c-1.3,0.1-2.9-1-3.3-2.3c-0.3-0.8-0.6-1.7-0.3-2.6
		C92,43.3,92,42.8,91.7,42.3z"/>
	<path d="M274.1,46.1c-0.2,1.6,0.2,2.9,0.6,4.2c0.8,2.5,3.9,2.8,5.6,1.7c0.4-0.3,0.6-0.7,0.8-1.2c0.2-0.8,0.2-1-0.7-1
		c-0.7,0-1.4,0-2.1,0c-1.1,0-1.7-0.5-1.8-1.4c-0.1-0.9,0.6-1.5,1.8-1.7c0.7-0.1,1.5-0.1,2.2-0.2c0.6-0.1,1.2-0.1,1.7,0.2
		c2.3,1,2.8,2.5,1.5,4.7c-1.3,2.3-3.3,3.5-6.1,3.2c-0.7-0.1-1.5-0.1-2.2-0.4c-1.6-0.6-2.6-1.8-3.1-3.4c-0.9-2.5-0.9-5.1-0.5-7.7
		c0.2-1.7,0.7-3.3,1.2-4.9c0.6-1.7,1.9-2.8,3.5-3.5c0.7-0.4,2.4,0.2,2.9,0.8c0.1,0.2,0.2,0.4,0.1,0.6c-0.2,1-0.5,2-1.3,2.7
		c-0.3,0.3-0.6,0.4-1,0.1c-0.8-0.6-1.3,0-1.4,0.6C275.1,41.8,273.7,43.8,274.1,46.1z"/>
	<path d="M406.1,376.1c-3.4,0-5.2-2-5-5.1c0.2-1.8,0.5-3.6,2.4-4.5c0.6-0.3,1-0.9,1.5-1.4c0.8-0.8,1.7-1.4,2.6-2.1
		c1.5-1,3-0.6,4.4,0.9c1,1.1,0.8,2.9-0.3,4.1c-1.5,1.7-3.4,2.7-5.7,2.7c-0.1,0-0.2,0-0.3,0c-0.6,0-1.2,0.1-1.3,0.9
		c-0.1,0.7,0.2,1.4,0.9,1.7c0.4,0.2,0.9,0.2,1.4,0.2c1.4-0.2,2.9-0.4,4.3-0.6c1-0.2,1.9-0.2,2.9-0.1c0.4,0,0.9,0,1,0.5
		c0.2,0.6-0.2,0.9-0.6,1.1c-0.3,0.2-0.6,0.4-1,0.5C410.8,375.3,408.3,376,406.1,376.1z M408.8,366.7c-0.9,0.3-0.9,0.3-1.3,1
		C408,367.5,408.5,367.3,408.8,366.7z"/>
	<path d="M131.6,46.2c-1.7,0.1-3.3,0.1-4.9-0.6c-2-0.8-2.6-2.2-2.4-4.5c0.3-3.3,2-5.8,4.6-7.6c1-0.7,2.1-0.6,3.2-0.3
		c2.9,0.7,4.7,2.8,6.1,5.3c0.6,1,1.1,2,1.3,3.2c0.3,1.6-0.1,2.5-1.5,3.3c-1.4,0.8-3,1.1-4.6,1.2C132.9,46.3,132.2,46.2,131.6,46.2z
		 M132.2,43.8c1.1,0.3,2.4,0.1,3.6,0c1.1-0.1,1.3-0.4,1-1.5c-0.7-2.6-2.4-4.6-4.6-6.1c-0.4-0.3-0.9-0.4-1.3-0.5
		c-0.8-0.3-1.4-0.1-1.8,0.5c-0.8,1.4-1.7,2.7-2,4.3c-0.3,2,0.5,3.1,2.5,3.2C130.5,43.9,131.3,43.8,132.2,43.8z"/>
	<path d="M364.3,48.1c-0.5-0.7-1-0.8-1.7-0.6c-1.4,0.3-3-0.6-3.4-1.8c-0.4-1.2,0.3-2.2,1.5-2.1c3.6,0.2,6.3,2,8.3,5
		c0.7,1.1,0.6,2.2-0.1,3.1c-1.5,1.8-3.5,3.1-5.9,3.5c-0.5,0.1-1,0.2-1.2-0.4c-0.2-0.6,0.1-1,0.7-1.2c1-0.5,1.9-1.1,2.9-1.7
		c0.4-0.2,0.7-0.5,0.9-0.8c0.3-0.4,0.3-0.9,0-1.3c-0.3-0.4-0.7-0.4-1.1-0.2c-0.4,0.2-0.8,0.2-1.1,0.5c-0.3,0.3-0.7,0.4-1.2,0.5
		c-2.4,0.3-4.7,0.7-7.1,1c-1.2,0.2-2.3,0.4-3.4,0.6c-1.1,0.1-2.1,0-3.2-0.3c-0.8-0.2-1.1-0.8-1.2-1.5c-0.1-0.9,0.5-1.5,1.3-1.3
		c3.3,0.7,6.6,0,9.9-0.3c1-0.1,1.9-0.1,2.9-0.1C362.8,48.6,363.5,48.2,364.3,48.1z"/>
	<path d="M400.8,59.1c-4.1,0.1-6.5-1.5-7.8-5.2c-0.3-0.7-0.6-1-1.3-1.1c-1.6-0.2-3-1-4.7-0.9c-0.5,0-1.1-1-1-1.6
		c0.1-0.6,0.7-1.1,1.4-1.1c1,0.1,2,0.2,3,0.5c0.2,0.1,0.5,0.2,0.7,0.3c1.4,0.5,1.5,0.3,1.7-0.9c0.2-1.8,1-3.5,2.2-4.9
		c0.9-1.1,2-1,2.7,0.2c0.4,0.7,0.4,1.4-0.4,1.9c-1.2,0.8-1.5,2.1-1.9,3.2c-0.4,1,0,1.4,1,1.4c1.3,0.1,2.7,0.1,4,0.2
		c0.3,0,0.7,0.1,0.7,0.5c0.1,0.4-0.2,0.6-0.4,0.8c-0.6,0.4-1.3,0.6-2,0.5c-0.9-0.1-1.5,0.4-2.3,0.6c-0.6,0.2-0.6,0.6-0.3,1
		c1,1.2,2,2.3,3.8,2.3c1.3,0,2.5,0.2,3.7-0.5c0.7-0.4,1.2,0.1,1.1,0.9c-0.1,0.7-0.5,1-1.1,1.3C402.7,59.1,401.6,59.1,400.8,59.1z"/>
	<path d="M56.1,167.7c-2.8,0-5.3-0.4-7.7-1.5c-1-0.5-1.7-1.2-2.5-1.9c-0.5-0.5-0.6-1.1-0.7-1.7c-0.3-2.1,0.3-4,1.4-5.8
		c0.5-0.8,1-1.5,1.5-2.3c1.1-1.9,2.8-3.1,4.5-4.2c1.1-0.7,1.8-0.3,2.1,1c0.2,1.2-0.1,2.2-0.6,3.2c-0.3,0.5-0.7,0.7-1.1,0
		c-0.2-0.5-0.5-0.4-0.9-0.2c-0.9,0.4-1.5,1.2-2,2c-0.7,1.2-1.3,2.4-1.9,3.7c-0.9,2.1-0.2,3.9,1.9,4.6c3.5,1.1,7.2,1.6,10.8,0.6
		c0.3-0.1,0.5-0.1,0.8-0.1c0.4,0,0.8,0.1,0.9,0.5c0.1,0.4,0.2,0.8-0.2,1.2c-0.3,0.3-0.7,0.4-1.2,0.5
		C59.5,167.5,57.7,167.8,56.1,167.7z"/>
	<path d="M143.2,258.7c0.1-1.7,0.2-3.3,0.3-4.8c0-0.2,0-0.4,0.1-0.6c0.3-1.1,1-1.4,1.9-0.8c0.5,0.3,0.8,0.5,1.2,0
		c1.6-2.1,4.2-1.4,6.1,0.2c1.6,1.4,2.5,3.3,3.4,5.1c0.5,0.9,0.7,1.9,1.2,2.8c0.3,0.4,0.4,0.9-0.1,1.3c-0.5,0.4-1,0.6-1.6,0
		c-1.3-1.2-2.1-2.8-3.1-4.2c-0.5-0.8-1-1.5-1.7-2.1c-1.1-1-1.8-0.9-2.8,0.2c-0.7,0.8-1,1.8-1,2.7c-0.1,1.9-1.7,2-2.7,2.7
		c-0.5,0.3-1.1-0.1-1.2-0.7C143.1,259.7,143.2,259.1,143.2,258.7z"/>
	<path d="M293.9,56.2c-1.8,0-3.2-0.3-4.6-0.9c-2.3-1-3.1-4.1-2-6.2c1.2-2.4,3.3-3.5,5.6-4.4c0.8-0.3,1.4,0.1,2,0.6
		c1.5,1.3,1.6,1.7,0.4,3.3c-1,1.4-2.1,2.6-3.9,2.7c-0.2,0-0.3,0.1-0.4,0.2c-0.4,0.2-1.2,0-1.2,0.8c0,0.8,0.6,1.1,1.2,1.3
		c1.3,0.6,2.7,0.7,4.1,0.5c1.3-0.2,2.5-0.3,3.7-0.8c0.5-0.2,1.3-0.4,1.5,0.3c0.2,0.6-0.4,0.9-0.9,1.2
		C297.6,55.9,295.6,56.2,293.9,56.2z"/>
	<path d="M57.2,45c0.9,0.1,1.5,0.1,2.2,0c0.5-0.1,1,0,1.2,0.6c0.2,0.5,0,0.8-0.4,1.1c-0.4,0.3-0.7,0.7-1.2,0.8
		c-2.2,0.4-4.3,0.2-6.3-0.9c-3.6-2-4.6-5.2-4.1-8.9c0.4-2.6,1.8-4.9,4.3-6.1c1.8-0.9,3.5-0.2,4.3,1.6c0.2,0.5,0.2,0.9,0.1,1.4
		c-0.1,0.4-0.1,0.9-0.6,1c-0.4,0.1-0.6-0.3-0.9-0.5c-0.8-0.8-1.1-0.9-2-0.2c-2,1.5-2.3,3.6-2.2,5.8c0.2,2.3,1.8,4.5,4.9,4.4
		C56.8,45,57.1,45,57.2,45z"/>
	<path d="M386.6,261.6c0,1.9-0.3,3.6-1.2,5.2c-1,1.8-2.3,3.4-3.6,4.8c-0.8,0.8-1.3,0.9-1.8,0.5c-0.5-0.5-0.5-1.2,0.1-2
		c1-1.3,1.9-2.6,2.7-3.9c0.7-1,0.9-2.1,1-3.3c0.2-2.3-0.2-4.5-1-6.6c-0.5-1.2-0.9-2.5-1.4-3.7c-0.2-0.6-0.4-1.2-1-1.6
		c0,0-0.1-0.1-0.1-0.1c-0.6-0.8-0.6-2.2,0-2.7c0.5-0.4,1.7,0,2.3,0.9c0.7,1.1,1.2,2.3,1.6,3.5c0.7,2.1,1.5,4.1,2,6.2
		C386.4,259.7,386.5,260.7,386.6,261.6z"/>
	<path d="M53,95.8c0-1.4,0.2-2.8,0.6-4.1c0.3-1.2,1-2.1,1.8-3c1-1.1,2.3-1.4,3.8-1.1c1.1,0.2,2.1,0.8,3.1,1.2
		c0.2,0.1,0.4,0.3,0.4,0.5c0,0.3-0.2,0.4-0.5,0.5c-0.5,0.1-0.9,0.2-1.4,0.1c-2.6-0.5-2.9-0.3-4.1,2.1c-0.9,1.8-1.2,3.7-0.7,5.7
		c0.5,1.9,1.4,2.7,3.4,2.7c1.6-0.1,3.2-0.3,4.7-0.4c0.2,0,0.3-0.1,0.5-0.1c0.4,0,1-0.2,1.1,0.4c0.1,0.5-0.1,0.9-0.6,1.2
		c-0.3,0.2-0.6,0.4-1,0.5c-2.4,0.5-4.9,1-7.4,0.4c-1.6-0.3-2.5-1.3-3-2.7C53.1,98.4,52.7,97.1,53,95.8z"/>
	<path d="M349.3,165c-0.1-1.5,0.4-3.1,0.8-4.7c0.6-2.6,1-5.2,2.3-7.6c0.5-0.9,1.1-1.7,1.8-2.4c0.5-0.6,1.2-0.7,1.7-0.3
		c0.5,0.5,0.6,1,0.1,1.7c-2.1,2.6-2.9,5.6-3.5,8.8c-0.3,1.6-0.8,3.1-0.8,4.7c-0.1,2.1,0.6,4,1.8,5.7c0.8,1.2,2.1,1.6,3.3,2
		c0.8,0.3,1.7,0.6,2.6,0.6c0.4,0,0.9,0.2,0.9,0.7c0,0.5-0.5,0.5-1,0.6c-2.7,0.5-7.7-1.5-8.9-4.6C349.7,168.4,349.3,167.1,349.3,165z
		"/>
	<path d="M344.3,259.7c0-1.1,0.2-2.1,0.4-3.2c0.7-3.2,1.3-6.4,2.5-9.4c0.6-1.4,1.3-2.7,2.2-3.9c0.3-0.4,0.7-0.9,1.3-0.6
		c0.7,0.4,0.8,1,0.6,1.7c-0.1,0.2-0.2,0.4-0.3,0.6c-1.8,3.2-2.8,6.7-3.4,10.2c-0.1,0.8-0.3,1.6-0.5,2.4c-0.4,2.4-0.1,4.7,1,6.8
		c0.3,0.7,0.8,1.3,1.4,1.7c0.5,0.3,0.9,0.7,0.6,1.3c-0.3,0.7-0.9,0.7-1.5,0.5c-0.9-0.2-1.6-0.7-2.2-1.5
		C345,264.4,344.3,262.1,344.3,259.7z"/>
	<path d="M149,165.6c-0.7-0.1-1.2-0.1-1.7,0c-1.6,0.2-3.2-0.2-4.7-0.8c-1.3-0.5-1.7-1.5-1.2-2.9c0.2-0.7,0.5-1.4,0.8-2.1
		c0.2-0.5,0.3-0.9,0.2-1.4c-0.2-1.8-1.3-2.4-2.9-1.5c-0.5,0.3-0.9,0.6-1.2,1.1c-0.3,0.6-0.9,0.5-1.4,0.4c-0.6-0.2-0.6-0.7-0.6-1.2
		c0-1,0.4-1.8,1.3-2.2c1-0.5,2-1,3.1-1.4c1.5-0.5,2.5-0.1,3.4,1.3c1.3,2,1.5,4,0.7,6.2c-0.4,1.1-0.2,1.3,0.9,1.7
		c1.4,0.5,2.8,0.8,4.2,0.8c0.5,0,1.1,0.1,1.4,0.5c0.4,0.4,0.4,0.8-0.2,1C150.4,165.5,149.6,165.7,149,165.6z"/>
	<path d="M45.8,250c-2.1,1.3-3,3.4-2.4,5.6c0.2,0.8,0.6,1.3,1.4,1.6c0.7,0.2,1.3,0.3,2,0.3c0.4,0,0.9,0.1,1.2,0.3
		c0.7,0.4,0.8,1,0.2,1.5c-0.2,0.2-0.6,0.4-0.8,0.4c-1.4,0.1-2.9,0.3-4.3-0.1c-2-0.5-2.8-2-3.1-3.9c-0.3-1.8,0-3.6,1-5.2
		c0.9-1.4,1.8-2.8,3.2-3.9c1.4-1.1,2.6-0.5,3.5,0.7c0.8,1,0.5,2.3-0.7,3.2c-0.1,0.1-0.3,0.2-0.4,0.2c-0.4,0.1-0.7,0.7-1.1,0.3
		C44.9,250.7,46,250.4,45.8,250z"/>
	<path d="M308.3,47.9c0.5,0,1.1,0,1.6-0.2c0.3-0.1,0.6,0.1,0.8,0.4c0.3,0.4,0.1,0.7-0.1,1c-0.7,1-1.8,1-2.8,1.3
		c-0.6,0.1-1.2,0.3-1.8,0.4c-0.8,0.2-1,0.6-0.8,1.3c0.2,0.8,1.3,1.8,2.1,1.7c0.9-0.1,2,0.1,2.7-0.8c0.3-0.4,0.6-0.4,1-0.1
		c0.5,0.3,0.5,0.7,0.2,1.1c-0.4,0.7-0.8,1.4-1.7,1.6c-1.2,0.3-2.4,0.5-3.6,0.2c-2-0.5-3.2-1.9-3.3-4c-0.1-0.7,0.1-1.4-1-1.3
		c-0.5,0-0.8-0.5-1-0.9c-0.4-1-0.1-1.7,0.9-1.6c1.4,0.1,2-0.5,2.5-1.7c0.4-1,1.4-1.5,2-2.3c0.4-0.5,1.1-0.4,1.6-0.2
		c0.8,0.3,0.9,1,0.4,1.7c-0.4,0.5-0.9,0.9-1.2,1.5c-0.3,0.5-0.1,0.8,0.5,0.8C307.5,47.9,307.9,47.9,308.3,47.9z"/>
	<path d="M328.8,53.4c0-3.9-1-7.3-2.5-10.5c-0.2-0.5-0.5-1.1-1-1.4c-0.9-0.7-0.6-1.7-0.7-2.6c-0.1-0.5,0.5-0.6,0.9-0.8
		c0.4-0.1,0.7,0.1,1,0.4c0.9,1.1,1.7,2.3,2.2,3.7c1.7,4,2.5,8.2,2.4,12.6c-0.1,3.2-1.7,5.6-3.9,7.8c-0.5,0.5-0.9,0.1-1.3-0.1
		c-0.5-0.2-0.5-0.7-0.3-1.1c0.3-0.5,0.5-0.9,0.9-1.3C328.4,58.1,328.9,55.7,328.8,53.4z"/>
	<path d="M323.1,57.9c-2.4,0-4.6-0.6-6.2-2.4c-1-1.1-1.8-2.3-1.8-3.8c-0.1-3.9,0.7-7.6,2.5-11.1c0.5-1,1.4-1.6,2.2-2.3
		c0.7-0.6,1.7-0.3,2,0.4c0.2,0.4,0.2,0.9-0.2,1.1c-2.6,1.3-2.9,3.9-3.5,6.3c-0.3,1.2-0.5,2.5-0.6,3.8c-0.2,3.4,1.4,5.3,4.6,6
		c1,0.2,2,0.4,3,0.3c0.4,0,1.1-0.2,1.1,0.5c0,0.6-0.4,1-1,1.1C324.5,57.9,323.8,58,323.1,57.9z"/>
	<path d="M356.6,261.8c0.1-1-0.2-1.7-0.4-2.4c-1.1-4.1,1.9-8.5,5.7-9.6c0.5-0.1,0.9-0.2,1.4-0.2c1,0.1,1.8,0.9,1.7,1.9
		c0,0.8-0.9,1.7-1.8,1.7c-4.2,0.1-5.4,3.6-4.2,6.4c0.4,0.9,0.7,1.9,0.9,2.9c0.2,1.3,0,1.6-1.1,2.1c-0.3,0.1-0.6,0.2-0.9,0.4
		c-1.1,0.5-1.9,0.4-2.7-0.4c-0.1-0.2-0.3-0.3-0.4-0.5c-0.4-0.7-1.2-1.4-0.5-2.3C354.9,261,355.7,261.4,356.6,261.8z"/>
	<path d="M116.5,256.7c-0.2,1.5-1.1,1.8-2.3,1.8c-1,0-2,0.1-2.9,0.8c0.6,0.6,1.2,0.7,1.9,0.7c0.5,0,1.1-0.1,1.6-0.1
		c0.4,0,0.8,0,0.9,0.5c0.1,0.4,0,0.7-0.3,1c-0.2,0.1-0.3,0.3-0.5,0.4c-2.2,1.5-5.3,0.7-6.6-1.7c-0.8-1.4-1-2.6-0.3-4.2
		c0.7-1.5,1.3-3,2.1-4.4c0.4-0.8,1-1,1.9-0.9c0.9,0.2,1.2,0.8,0.8,1.7c-0.4,0.8-0.8,1.5-1.2,2.3c-0.5,1.2-0.2,1.5,0.9,1.5
		C113.9,256.1,115.2,256.4,116.5,256.7z"/>
	<path d="M366.9,156.4c0.9,0,1.5,0.2,1.8,1c0.4,0.9,0.3,1.6-0.3,2.2c-0.6,0.5-1.1,0.9-2,0.5c-1-0.4-2.1,0.1-2.9,1.3
		c-0.6,0.8-0.6,1.1,0.2,2.1c0.6,0.8,1.2,1.6,1.8,2.4c0.4,0.5,0.8,1.1,1,1.8c0.6,1.8,0.4,2.5-1.5,3.1c-0.6,0.2-1.3,0.4-2,0.5
		c-0.6,0.1-1.2-0.2-1.3-0.9c-0.1-0.6-0.3-1.2,0.1-1.7c0.4-0.4,0.9-0.1,1.3,0.2c0.3,0.2,0.6,0.1,0.9-0.1c0.3-0.3,0.2-0.6,0-0.9
		c-0.5-1-1.2-1.7-1.9-2.6c-0.3-0.4-0.6-0.7-0.9-1.1c-1-1.3-1-2.6-0.1-4c1-1.6,2.3-2.9,4.1-3.6C365.8,156.5,366.4,156.3,366.9,156.4z
		"/>
	<path d="M93.9,101.6c1.1,0.2,1.9,0.1,2.6,0.4c0.2,0.1,0.5,0.3,0.5,0.5c0,0.3-0.2,0.5-0.5,0.6c-1.8,0.6-3.7,0.8-5.6,0.8
		c-0.6,0-1.2-0.4-1.6-0.9c-0.7-0.7-0.9-1.7-1.6-2.5c-0.6-0.7,0-1.7,1-1.8c0.6-0.1,1-0.3,1.4-0.7c0.7-0.8,1.6-1.3,2.3-1.9
		c1.9-1.6,3.4-0.7,4.4,1.4c0.5,1.1,0.1,2-0.8,2.8C95.4,100.8,94.9,101.3,93.9,101.6z"/>
	<path d="M389,169.4c0,0.9,0,2.6-0.9,4.2c-0.4,0.6-0.8,1.1-1.3,1.6c-0.4,0.4-0.8,0.5-1.3,0.2c-0.5-0.3-0.6-0.8-0.3-1.3
		c2.4-4.2,1.1-8.4,0.1-12.5c-0.5-1.8-1.2-3.6-2.3-5.2c-0.4-0.6-0.3-1.2-0.2-1.9c0.1-0.6,0.7-0.9,1.2-0.6c0.6,0.4,1.2,0.8,1.6,1.5
		C387.4,158.5,389.1,165,389,169.4z"/>
	<path d="M373.8,174c1.8-0.6,3.5-1.1,5.3-1.7c0.6-0.2,1.1-0.4,1.7-0.6c0.4-0.1,0.7-0.1,1,0.3c0.2,0.3,0,0.6-0.2,0.9
		c-0.6,0.9-1.6,1.4-2.6,1.8c-1.7,0.7-3.3,1.4-5.1,1.7c-1.1,0.2-2.3,0.4-2.9-0.7c-0.5-1-0.5-2.1,0.2-3.2c0.4-0.7,0.8-1.4,1.2-2.1
		c0.3-0.5,0.2-0.8-0.4-1.1c-0.8-0.4-1-1.1-0.8-1.8c0.2-0.7,0.8-0.8,1.4-0.8c0.4,0,0.7,0,1.1,0c0.9,0,1.7,0.1,2.1,1.1
		c0.4,1,0.3,1.9-0.4,2.7c-0.9,1-1.1,2.2-1.8,3.3C373.6,173.8,373.7,173.9,373.8,174z"/>
	<path d="M363.9,265.8c0.4-1.4,0.3-2.9,0.6-4.4c0.2-1.1,1-1.4,1.9-0.6c0.6,0.5,0.9,0.7,1.7,0.3c1.4-0.7,3.1,0.1,4,1.4
		c1,1.5,1.5,3.1,2.2,4.8c0.3,0.7,0.4,1.2-0.3,1.7c-0.6,0.4-1.5,0.3-2-0.3c-0.5-0.6-0.8-1.4-1-2.2c-0.2-0.7-0.5-1.3-0.9-1.8
		c-0.6-0.7-1-0.7-1.6,0c-0.2,0.2-0.4,0.5-0.6,0.8c-0.3,0.4-0.5,0.9-1.2,0.8c-0.5-0.1-0.7,0.3-1.1,0.6c-0.7,0.6-1.2,0.5-1.4-0.4
		C364,266.3,364,266.1,363.9,265.8z"/>
	<path d="M111.2,101.7c-1.4,0-2.7-1.1-3-2.4c-0.1-0.5,0.1-1.3-0.6-1.5c-0.6-0.1-1,0.5-1.4,0.9c-0.5,0.5-1.1,1.1-1.4,1.7
		c-0.8,1.5-2.3,1.3-3.6,1.7c-0.4,0.1-0.7-0.3-0.8-0.7c-0.2-0.6-0.2-1.2,0.1-1.9c0.4-1.1,1.2-1.9,1.9-2.7c0.2-0.3,0.6-0.5,0.8-0.3
		c0.8,0.4,1.4-0.1,2-0.5c0.8-0.5,1.8-0.9,2.7-1c1.6-0.1,3,0.2,3,2.5c0,0.9,0.2,1.5,1,2c0.4,0.2,0.9,0.7,0.8,1.3
		C112.5,101.6,111.6,101.4,111.2,101.7z"/>
	<path d="M119,164.6c-0.1,0-0.5,0.1-0.9,0.2c-0.4,0.1-1-0.2-1,0.5c0,0.5,0.6,0.5,1,0.6c0.2,0,0.3,0.1,0.5,0.1
		c0.6,0.1,1.2,0.3,1.1,1.1c-0.1,0.7-0.7,1.1-1.3,1.2c-1.7,0.3-3.6-0.8-4.2-2.5c-0.2-0.6-0.4-1-0.9-1.4c-0.6-0.5-0.7-1.7-0.1-2.2
		c1-0.8,1.2-2.1,1.8-3.1c0.3-0.4,0.4-0.8,0.8-1.2c0.4-0.3,0.8-0.9,1.4-0.5c0.6,0.4,0.8,1,0.6,1.7c-0.2,0.7-0.5,1.3-0.7,2
		c-0.3,1-0.2,1.2,0.9,1.3c1,0.1,1.9,0.2,2.7,0.7c0.5,0.3,0.5,0.6,0,1C120.5,164.3,119.6,164.6,119,164.6z"/>
	<path d="M66.1,155.5c0-1.1-0.1-2.1,0.2-3.2c0.2-0.7,0.4-1.5,1.3-1.6c0.6,0,1.1,0.8,1.2,1.8c0.1,1.2,0.2,2.4,0.2,3.7
		c0.1,2.5,0.5,5,1.1,7.4c0.4,1.4-0.3,2.6-0.5,3.9c-0.1,0.5-0.6,0.5-1,0.2c-0.4-0.3-0.6-0.8-0.7-1.2c-0.1-0.7-0.5-1.4-0.6-2.1
		C66.8,161.4,65.8,158.5,66.1,155.5z"/>
	<path d="M56,251.2c0-1.1,0.4-2.1,0.7-3.1c0-0.1,0.1-0.3,0.2-0.4c0.5-0.5,0.9-0.9,1.7-0.6c0.6,0.3,0.8,0.8,0.7,1.4
		c-0.2,1.2-0.1,2.4,0,3.7c0.1,1.4,0.3,2.8,0.9,4c0.7,1.5,0.3,2.9,0.2,4.4c0,0.6-0.5,0.9-1.1,1c-0.7,0.1-1-0.3-1.2-0.8
		c-0.8-2-1.6-3.9-1.7-6.1C56.4,253.5,56.2,252.4,56,251.2z"/>
	<path d="M105.4,43.3c0.8,0.3,1.7,0.3,2.5,0.3c0.3,0,0.5,0,0.8,0c0.6,0.1,1.4,0.2,1.5,1c0,0.7-0.7,0.8-1.3,0.9
		c-0.8,0.1-1.7,0.3-2.5,0.4c-0.1,0.2-0.2,0.3-0.1,0.3c0.4,0.6,0.7,1.2,0.2,1.8c-0.5,0.6-1.2,0.6-1.9,0.4c-0.9-0.2-1.7-0.7-2.1-1.6
		c-0.3-0.8-0.9-1.3-1.6-1.7c-0.4-0.2-0.9-0.5-0.7-1.1c0.2-0.6,0.3-1.2,1-1.3c0.8-0.1,1.2-0.4,1.5-1.2c0.2-0.5,0.7-0.9,1.1-1.3
		c0.5-0.5,1.1-0.5,1.6-0.2c0.6,0.4,0.8,1,0.5,1.7C105.7,42.2,105.3,42.6,105.4,43.3z"/>
	<path d="M121.8,103.2c-1.9,0-3-0.9-3.3-2.6c-0.1-0.4-0.2-0.7-0.5-1c-0.8-1.2-0.6-2.4,0.7-2.8c0.8-0.3,1.1-0.8,1.3-1.4
		c0.2-0.4,0.3-0.8,0.5-1.2c0.2-0.5,0.5-0.9,1.2-0.8c0.7,0.2,1.2,0.9,1.1,1.5c0,0.2-0.1,0.4-0.1,0.6c-0.1,0.5-0.5,1-0.3,1.5
		c0.2,0.7,0.9,0.4,1.4,0.6c0.3,0.2,0.6,0.3,0.6,0.7c0.1,0.4-0.3,0.5-0.5,0.7c-0.6,0.4-1.2,0.7-1.9,0.7c-0.3,0-0.5,0.2-0.6,0.5
		c0,0.3,0.1,0.5,0.4,0.6c0.4,0.2,0.8,0.3,1.2,0.5c0.3,0.1,0.6,0.3,0.6,0.7c0,0.5-0.3,0.7-0.6,0.8C122.5,103.1,122,103.1,121.8,103.2
		z"/>
	<path d="M69.1,92.6c-0.1-0.9,0.1-1.7,0.3-2.5c0.1-0.7,0.7-0.9,1.3-1c0.6,0,1,0.3,1.2,0.9c0.3,1.1,0.2,2.3,0.3,3.5
		c0.1,1.5,0.2,3.1,0.5,4.6c0.2,1,0.5,1.8,1.4,2.4c0.4,0.3,0.6,0.6,0.4,1.1c-0.2,0.5-0.6,0.6-1.2,0.6c-1.5-0.2-2.5-1.1-3.1-2.6
		C69.4,97.2,69.3,94.9,69.1,92.6z"/>
	<path d="M63.8,35.7c0.1-0.2,0.1-0.6,0.2-0.9c0.3-0.8,1-1,1.6-0.3c0.7,0.7,1,1.6,1.1,2.6c0.2,1.6,0.4,3.3,0.6,4.9
		c0.1,0.9,0.4,1.7,0.8,2.5c0.3,0.6,0.5,1.2,0,1.8c-0.5,0.5-1.3,0.4-2-0.2c-0.7-0.5-1.1-1.2-1.2-2C64.2,41.4,64.1,38.5,63.8,35.7z"/>
	<path d="M79.7,99.3c-0.3-1,0.3-1.9,0.6-2.8c0.4-1.4,0.1-2.6-0.3-3.9c-0.2-0.5-0.3-1-0.2-1.6c0.1-0.6,0.5-1,1.1-1
		c0.6,0,1.1,0.3,1.2,0.9c0.2,1.6,0.9,3.2,0.2,4.8c-0.1,0.2-0.2,0.5-0.1,0.6c0.5,1.1,0.2,2.3,0.3,3.5c0,0.8,0.3,1.5,0.5,2.2
		c0.2,0.5,0.1,1.1-0.4,1.4c-0.5,0.4-1,0.2-1.5-0.1c-0.5-0.3-0.9-0.8-1-1.4C79.8,101.1,79.7,100.3,79.7,99.3z"/>
	<path d="M363.9,370.8c0-2,0.3-3.5,0.8-4.9c0.2-0.6,0.5-1.1,1.2-1.1c0.8,0,1,0.7,1.1,1.4c0.1,0.4,0,0.8-0.1,1.3
		c-0.2,1.1-0.2,2.2-0.2,3.3c0,0.8,0,1.6,1.1,1.7c0.6,0.1,0.9,0.6,0.8,1.2c-0.1,0.6-0.4,1.2-1.2,1.4c-1.5,0.4-2.9-0.3-3.3-1.9
		C364,372.3,363.9,371.3,363.9,370.8z"/>
	<path d="M148.5,94.9c0.2,2.3,0.3,4.7-0.2,7c-0.2,0.7-0.2,1.6-1,1.6c-1,0.1-1-1-1.2-1.6c-0.2-0.9-0.1-1.8-0.1-2.7
		c-0.1-1.4-0.1-2.9-0.2-4.3c0-0.8,0.1-1.5,0.5-2.2c0.3-0.5,0.8-0.9,1.4-0.8c0.6,0.1,0.6,0.6,0.8,1.1
		C148.6,93.6,148.5,94.2,148.5,94.9z"/>
	<path d="M74,164.2c0.1-0.8,0.1-1.7,0.2-2.5c0.1-0.6,0.2-1.2,0.9-1.3c0.7-0.1,0.9,0.4,1.1,0.9c0.6,1,0.5,2.2,0.7,3.3
		c0.1,0.8,0.1,1.6,0.9,2.1c0.5,0.4,0.2,0.9,0.1,1.3c-0.2,0.5-0.6,0.5-1,0.5c-1.2-0.1-2.1-0.7-2.4-1.9
		C74.2,165.8,73.9,165.1,74,164.2z"/>
	<path d="M63.6,256.3c0-0.5,0-1,0-1.4c0-0.5,0.3-0.9,0.8-1.1c0.5-0.2,0.9,0.1,1.2,0.6c0.4,0.6,0.7,1.2,0.8,1.9
		c0.2,1.2,0.3,2.3,0.7,3.4c0.3,0.9-0.1,1.5-0.8,1.8c-0.8,0.3-1.6,0-2-0.8C63.8,259.8,63.6,258.2,63.6,256.3z"/>
	<path d="M71.3,44.4c0.2-0.8,0.3-1.8,0.5-2.8c0.1-0.5,0.4-0.9,1-0.9c0.5,0,0.6,0.5,0.7,0.9c0.1,1.1,0.3,2.2,0.4,3.3
		c0.1,1.2-0.1,1.8-0.7,1.8c-0.9,0.1-1.6-0.5-1.8-1.6C71.3,45,71.3,44.8,71.3,44.4z"/>
	<path d="M363.9,358.6c0.2-0.4,0.4-0.9,0.5-1.4c0.2-0.7,0.5-1.5,1.5-1.4c0.9,0.1,1.9,1.2,1.9,2.1c0,0.5-0.1,1.2-0.6,1.1
		c-1.1-0.1-1.8,1.3-2.9,0.8C363.9,359.6,363.9,359.1,363.9,358.6z"/>
	<path d="M78.2,158.8c-0.1,0.4,0.2,1-0.5,1.2c-0.6,0.2-1.2-0.3-1.4-0.8c-0.4-0.7-0.8-1.5-1.1-2.2c-0.4-0.8-0.1-1.5,0.7-1.8
		c0.8-0.3,1-0.2,1.6,0.7C77.9,156.7,78.2,157.6,78.2,158.8z"/>
	<path d="M97.4,210.9c-0.9,0-1.8-1-1.8-2c0-0.8,0.7-1.5,1.5-1.6c0.8,0,1.7,1.3,1.7,2.4C98.7,210.4,98.2,210.9,97.4,210.9z"/>
	<path d="M66.1,250.2c0,0.8,0.2,1.7-0.8,1.8c-0.9,0.1-1.1-0.8-1.3-1.4c-0.2-0.7-0.2-1.5-0.1-2.2c0-0.5,0.3-0.8,0.8-0.8
		c0.5-0.1,0.8,0.2,1,0.6C66,248.9,66.2,249.6,66.1,250.2z"/>
	<path d="M97.8,198.9c0,0.9-0.6,1.4-1.4,1.3c-0.7,0-1.5-1.2-1.5-2.1c0-1,0.5-1.4,1.3-1.4C97,196.7,97.8,197.9,97.8,198.9z"/>
	<path d="M99.6,219.6c-1.3-0.1-1.8-0.5-1.7-1.4c0.1-0.8,0.6-1.4,1.2-1.4c0.9,0,1.8,0.9,1.8,1.7C100.8,219.2,100.4,219.6,99.6,219.6z
		"/>
	<path d="M339.4,216.6c0.4,0,0.9,0.2,1.2,0.6c0.3,0.4,0.4,0.9-0.2,1.2c-0.4,0.3-1,0.4-1.4,0.8c-0.4,0.3-0.8,0.1-1-0.3
		C337.5,218.1,338.4,216.7,339.4,216.6z"/>
	<path d="M338.4,197c0.7,0,1.4,0.6,1.5,1.2c0,0.6-0.8,1.7-1.4,1.7c-0.6,0-1.1-0.6-1.2-1.3C337.3,197.7,337.7,197,338.4,197z"/>
	<path d="M338.7,209.1c-0.9-0.1-1.5-0.7-1.4-1.4c0-0.7,0.6-1.2,1.3-1.2c0.8,0,1.6,1,1.5,1.7C339.8,209.1,339.3,209.1,338.7,209.1z"
		/>
	<path d="M73.8,36.9c0,0.5-0.1,1-0.7,1c-0.7,0-1.3-0.8-1.3-1.5c0-0.7,0.4-0.9,1-1C73.4,35.4,73.8,36,73.8,36.9z"/>
	<path d="M325.1,110.1c0.6-0.4,0.6-0.8,0.7-1.2c0.9-2.2,1.9-4.4,3.9-5.9c0.5-0.4,1-0.7,1.6-0.6c1,0.2,1.1-0.3,1-1.1
		c-0.1-2,0.2-3.9,1.1-5.7c0.3-0.6,0.5-1.4,1.4-1.2c0.8,0.2,1.2,0.9,1,1.9c-0.3,1.9-0.4,3.8-0.4,5.7c0,2.3,0.8,4.3,1.9,6.2
		c0.3,0.5,0.8,0.9,1.2,1.2c0.3,0.2,0.6,0.5,0.4,0.9c-0.2,0.5-0.7,0.7-1.2,0.6c-0.8-0.2-1.6-0.5-2.2-1.2c-0.4-0.4-0.8-0.7-1.3-1.2
		c-1.1,2.4-3.3,3.5-5.1,5c-0.9,0.7-1.9,0.8-2.8,0.1c-1-0.7-2.3-0.6-3.2-1.4c-0.3-0.3-0.5,0.2-0.7,0.4c-1.6,1.4-3.3,2.3-5.5,2.1
		c-1.7-0.1-3.1-1.1-3.6-2.7c-0.8-2.8-0.2-6.4,2.1-8.4c1-0.9,2.8-0.7,3.5,0.3c0.3,0.4,0.4,0.8,0.2,1.2c-0.2,0.6-0.6,0.4-1.1,0.4
		c-1.1,0-2.3,1.3-2.5,2.7c-0.1,0.8-0.1,1.6-0.1,2.4c0.1,1.1,0.9,1.8,2.1,1.9c1.7,0.1,2.7-1,3.7-2.1c0.4-0.4,0.1-0.8-0.1-1.2
		c-0.6-1-1.1-2.1-1.4-3.2c-0.6-2.3,0.1-4.4,0.7-6.6c0.3-1,1.4-1.2,1.8-2.2c0.2-0.4,0.9,0.1,0.9,0.7c-0.1,1-0.1,2-0.2,3
		c-0.4,2.9-0.1,5.8,1.5,8.4C324.7,109.6,324.9,109.8,325.1,110.1z M328.5,111c0.5,0,0.8-0.2,1.2-0.5c1.4-1.1,2.6-2.2,3.3-4
		c0.2-0.6,0.2-1.1,0-1.7c-0.3-0.8-0.5-0.9-1.1-0.4c-0.7,0.6-1.4,1.2-1.9,1.9c-0.9,1.1-1.4,2.5-1.9,3.8
		C327.9,110.5,327.9,110.9,328.5,111z"/>
	<path d="M306.1,106.7c-2.6,0.5-5,1-7.7,0.3c-0.4,0.3-0.4,0.9-0.6,1.5c-0.1,0.6-0.2,1.2-0.4,1.7c-0.7,1.9-1.2,2.4-3,3.3
		c-0.4,0.2-0.6,0-0.8-0.3c-0.2-0.5-0.2-1-0.1-1.6c0.9-3.2,1.7-6.5,2.6-9.7c0.7-2.4,1.8-4.5,3.7-6.3c1.7-1.6,2.8-1.5,4.4-0.1
		c1.5,1.4,2.3,3.2,2.9,5.1c0.7,2.2,1.4,4.4,2,6.5c0.3,0.9,0.6,1.7,1.1,2.5c0.4,0.6,0.7,1.3,0,1.9c-0.6,0.5-1.6,0.2-2.1-0.7
		c-0.7-1.2-1.2-2.4-1.8-3.5C306.3,107,306.2,106.8,306.1,106.7z M304.2,105.1c0.2,0,0.5-0.1,0.9-0.1c0.4-0.1,0.6-0.3,0.5-0.7
		c-0.5-2.3-1.2-4.5-2.6-6.5c-0.8-1.1-1.5-1.1-2.1,0.2c-1,1.9-1.8,4-1.9,6.2c0,0.4,0,0.7,0.6,0.7
		C301.1,104.8,302.6,104.9,304.2,105.1z"/>
	<path d="M343.7,108c0.2-4,0.6-7.9,1.5-11.7c0.3-1.4,1.2-2.6,2-3.8c0.4-0.5,0.9-0.7,1.4-0.4c0.6,0.3,0.7,0.9,0.5,1.5
		c-0.1,0.1-0.1,0.3-0.2,0.4c-1.1,1.5-1.5,3.3-1.9,5c-0.6,3.4-0.9,6.7-0.8,10.2c0.1,2.9,2.1,5,5,5.5c0.1,0,0.1,0,0.2,0
		c0.4,0.1,1.1,0.1,1.1,0.7c0,0.7-0.7,0.9-1.3,0.9c-4.4,0.2-7.2-3.3-7.4-6.9C343.7,108.9,343.7,108.4,343.7,108z"/>
	<path d="M378.8,107.4c0.2,1.6-0.6,3.3-1.7,4.9c-0.8,1-1.6,2-2.4,3c-0.2,0.2-0.4,0.5-0.7,0.6c-0.4,0.3-0.9,0.3-1.3,0
		c-0.4-0.3-0.2-0.8-0.1-1.2c0.4-0.9,1.1-1.7,1.7-2.5c2.1-2.2,2.4-4.8,1.7-7.6c-0.7-2.9-2-5.5-4.6-7.2c-0.8-0.5-1-1.2-0.6-1.7
		c0.5-0.7,1.1-0.6,1.7-0.3c1.8,0.8,3,2.4,4.1,4C378.1,101.7,378.6,104.3,378.8,107.4z"/>
	<path d="M358.8,97.7c1.3,0,2.5,1.3,2.5,2.4c0,0.6-0.4,0.9-0.8,1.1c-0.5,0.2-1,0.4-1.5,0.6c-1.2,0.5-1.2,0.5-0.9,1.8
		c0.3,1.3,0.6,2.6,0.9,3.9c0.2,0.6-0.1,0.9-0.6,1.2c-1.5,1-2.7,0.6-4-0.3c-0.3-0.2-0.6-0.5-0.5-0.9c0.1-0.4,0.3-0.6,0.8-0.7
		c0.2,0,0.4,0,0.6,0c0.6,0,0.8-0.3,0.7-0.8c-0.1-0.7-0.3-1.5-0.5-2.2c-0.4-1.4-0.3-2.7,0.3-4C356.4,98.5,357.5,98,358.8,97.7z"/>
	<path d="M366.9,111.3c0.2,0.8,0.1,1.6,0.1,2.3c-0.1,0.7-0.5,1.2-1.2,1.3c-0.8,0.2-1-0.4-1.2-1c-0.7-2-0.6-4.1-0.1-6.1
		c0.2-0.9,0.9-1,1.6-0.4c0.5,0.4,0.8,0.9,0.8,1.5C367,109.8,367.1,110.6,366.9,111.3z"/>
</g>
</svg>
